Coordinates
version=1
nRows=13
nColumns=34
inDegrees=yes

Units are S.I. units (second, meters, Newtons, ...)
If the header above contains a line with 'inDegrees', this indicates whether rotational values are in degrees (yes) or radians (no).

endheader
time	pelvis_tilt	pelvis_list	pelvis_rotation	pelvis_tx	pelvis_ty	pelvis_tz	hip_flexion_r	hip_adduction_r	hip_rotation_r	knee_angle_r	ankle_angle_r	subtalar_angle_r	mtp_angle_r	hip_flexion_l	hip_adduction_l	hip_rotation_l	knee_angle_l	ankle_angle_l	subtalar_angle_l	mtp_angle_l	lumbar_extension	lumbar_bending	lumbar_rotation	arm_flex_r	arm_add_r	arm_rot_r	elbow_flex_r	pro_sup_r	arm_flex_l	arm_add_l	arm_rot_l	elbow_flex_l	pro_sup_l
      3.41666670	     -1.69535817	      0.14712116	      4.06963278	      0.03901813	      1.30916909	     -0.08211608	      1.65293323	      0.44147404	     -1.86954844	     12.45526514	     12.24253811	     -9.79922087	      0.00000000	      3.05139025	      2.21945472	      7.26554442	     14.73127643	     10.20391121	     -5.27380862	      0.00000000	     -2.65379517	      1.94633277	      0.53174661	     13.12994073	     -9.85873310	     30.74581838	    109.47046413	     93.31927185	     18.78766593	     -9.75327438	     32.89538346	    128.21156008	     86.22617732
      3.43333330	     -1.69260760	      0.20081100	      4.01466392	      0.03934584	      1.31202871	     -0.08107014	      1.50164026	      0.42531587	     -1.86941540	     12.31817107	     12.02822313	    -10.04299021	      0.00000000	      2.93225104	      2.24310724	      7.20915445	     14.71752950	     10.19338176	     -5.49730831	      0.00000000	     -2.85796645	      1.86075150	      0.60903747	     13.19067521	    -10.29185499	     30.79786688	    106.69283072	     93.33523809	     18.38415215	    -10.04179576	     32.50251296	    125.07167496	     85.69291070
      3.45000000	     -1.72142366	      0.33062482	      3.96967480	      0.03855748	      1.31232985	     -0.08110825	      1.43626812	      0.32263571	     -1.72770578	     12.16364167	     11.87495992	    -10.24163520	      0.00000000	      2.88318658	      2.40458764	      7.24817926	     14.68135806	     10.04565424	     -5.70813923	      0.00000000	     -3.22008161	      1.77346706	      0.44943085	     13.54252669	    -10.61421252	     31.04300599	    102.99206583	     93.35734923	     18.23340210	    -10.08590186	     31.85020453	    120.46667815	     85.01526141
      3.46666670	     -1.81477252	      0.40668209	      3.92014595	      0.04195810	      1.30930862	     -0.07935541	      1.39179727	      0.30658368	     -1.61799013	     11.87790554	     11.80480349	    -10.51112950	      0.00000000	      2.86949098	      2.47768029	      7.16895084	     14.59635163	      9.99562453	     -6.00587815	      0.00000000	     -3.45551631	      1.58925653	      0.24521840	     14.17783953	    -11.18824311	     31.86487143	     98.78680288	     93.36734486	     18.15222106	     -9.89101228	     31.28955994	    115.49466680	     83.88967643
      3.48333330	     -2.10251961	      0.42044179	      3.95571799	      0.04364793	      1.30478701	     -0.07868494	      1.58789862	      0.36746387	     -1.45965438	     11.77866676	     11.75799336	    -11.18597556	      0.00000000	      3.04403274	      2.48241252	      7.31083875	     14.40569998	     10.22818351	     -6.01082377	      0.00000000	     -3.46129710	      1.54863764	     -1.07138918	     15.47230378	    -11.33892694	     34.11443995	     93.99100002	     92.93818905	     17.77530496	    -10.16750841	     30.13061500	    110.69714059	     78.84967231
      3.50000000	     -1.92820407	      0.51145752	      3.90418415	      0.04206373	      1.30671252	     -0.08023443	      1.23680783	      0.32243752	     -1.51117287	     11.63997808	     11.71886874	    -11.17445343	      0.00000000	      2.78360555	      2.58585660	      7.20967952	     14.36605073	     10.43838060	     -6.20011164	      0.00000000	     -4.27324334	      1.31173858	     -1.04971702	     15.81272482	    -11.86955884	     34.76840757	     90.08998216	     92.91068506	     17.76889360	     -9.59185044	     29.11154145	    104.72510837	     77.95682648
      3.51666670	     -2.48434998	      0.63673704	      3.95625077	      0.04419524	      1.30563122	     -0.08019221	      1.86046829	      0.21999675	     -1.53409785	     11.77358118	     12.23790557	    -11.15187563	      0.00000000	      3.45579875	      2.74797454	      7.20804421	     14.42406724	     10.63739702	     -6.41161208	      0.00000000	     -4.12255984	      1.07156786	     -1.71347674	     15.77237478	    -11.99217222	     36.58063441	     85.87011666	     92.38364505	     16.17825893	     -9.82593892	     28.90067725	     99.34370413	     74.10229684
      3.53333330	     -2.65156252	      0.72523833	      3.96327296	      0.04468971	      1.30307717	     -0.07936624	      1.91081255	      0.16649023	     -1.26730925	     11.70374385	     12.24373207	    -11.20357843	      0.00000000	      3.60469963	      2.85058194	      7.19104636	     14.52975062	     10.87898340	     -6.30343986	      0.00000000	     -4.48705975	      0.85843074	     -1.97486550	     16.17302768	    -12.34781352	     37.84392782	     81.94443200	     92.04873417	     15.80792092	     -9.81738603	     28.82089903	     92.90560519	     72.02522377
      3.55000000	     -2.95157051	      0.77158639	      4.05421446	      0.04424538	      1.30245162	     -0.07862375	      2.28114081	      0.16472213	     -1.18385035	     11.79022886	     12.53275932	    -11.28012898	      0.00000000	      3.96993940	      2.90903829	      7.13621731	     14.82875669	     11.23414652	     -6.36543746	      0.00000000	     -4.88475951	      0.77069474	     -2.41638731	     16.71331548	    -12.20737831	     38.41329129	     78.19501769	     91.68719178	     15.84482653	     -9.45539204	     28.62783844	     85.69119293	     69.93999699
      3.56666670	     -3.15442532	      0.75984786	      4.28216857	      0.04563624	      1.29601857	     -0.07882439	      2.50812680	      0.20487123	     -1.31250567	     11.94168477	     12.77962827	    -11.59662815	      0.00000000	      4.27962544	      2.91001886	      7.36178939	     15.14060164	     11.75642108	     -6.16281305	      0.00000000	     -5.31549288	      0.72945008	     -3.18919156	     16.50062020	    -12.09593415	     38.40014098	     76.02344520	     91.45493447	     15.09146432	     -9.39431770	     27.76307069	     79.79483093	     68.62216298
      3.58333330	     -4.01004336	      0.71632503	      4.14474680	      0.04007145	      1.28516488	     -0.07747801	      4.06009068	      0.27424685	     -0.76391503	     12.79910449	     13.59185934	    -11.88453287	      0.00000000	      5.55622483	      2.91293159	      7.09296330	     15.84359019	     12.76236231	     -6.33000826	      0.00000000	     -5.07629161	      0.71386930	     -3.32812397	     16.64235538	    -12.06443526	     38.35948888	     74.58585517	     91.07607080	     14.59605771	     -9.22591456	     26.66352613	     74.08502567	     66.93057253
      3.60000000	     -4.62230574	      0.76454804	      4.25318518	      0.04090020	      1.28677900	     -0.07479974	      5.13418780	      0.25142285	     -0.58531975	     13.48635449	     14.00509759	    -12.48796407	      0.00000000	      6.63773330	      2.94101835	      6.96393372	     16.72788776	     13.18022654	     -6.44811032	      0.00000000	     -5.23652566	      0.57074468	     -3.66826295	     16.35473518	    -11.74446299	     38.12172872	     72.55684649	     90.70319803	     14.16696909	     -9.38348855	     25.51308138	     68.36438724	     65.50102066
      3.61666670	     -5.40609574	      0.82810533	      4.36571040	      0.04207750	      1.28876419	     -0.07723954	      6.33230353	      0.15935138	     -0.37564828	     14.09402770	     14.71219180	    -12.77718017	      0.00000000	      7.79350258	      3.06963353	      6.94094879	     17.29246346	     13.61595235	     -6.53165964	      0.00000000	     -5.29828476	      0.44258023	     -3.94662210	     16.27444765	    -11.40822289	     37.51519907	     70.00381272	     90.33603215	     13.25631024	     -9.45737852	     24.42787542	     62.01478150	     64.48221837
